<svg id="Camada_1" data-name="Camada 1" xmlns="http://www.w3.org/2000/svg" viewBox="0 0 511.93 512"><defs><style>.cls-1{fill:#4db5ff;}</style></defs><path class="cls-1" d="M239,0h34c.65,1.47,2,.92,3.05,1a178.79,178.79,0,0,1,27.61,3.4A253.07,253.07,0,0,1,416.34,56.6a257.42,257.42,0,0,1,38.77,38.55,246.79,246.79,0,0,1,28.14,43.17,262.1,262.1,0,0,1,20.82,54.49c2.37,9.3,3.81,18.79,5.85,28.15.64,7.73,1.31,15.47,1.9,23.21.66,8.61-.12,17.23.09,25.85-1.18,4.88-.82,9.89-1.23,14.83-1.71,8.25-2.29,16.69-4.2,24.91-5.43,23.43-13.15,46-24.83,67.12-2.24,4-4.43,8.1-6.64,12.15-6.66,9.32-12.73,19.08-19.94,28l0,0c-.42.15-.73.4-.69.9l-1.42,2c-3.27,3.49-6.54,7-9.79,10.48a253.21,253.21,0,0,1-47.69,40.09c-4.81,3.13-10.12,5.47-14.48,9.3a26,26,0,0,0-6.21,2.94,204.9,204.9,0,0,1-37.24,16A241.82,241.82,0,0,1,285,510.35c-3.6.36-7.6-.55-11,1.65H239a1.5,1.5,0,0,0-1.58-.9c-10.46-.22-20.69-2.1-30.95-4-21.84-4.07-42.58-11.33-62.59-20.84-11.08-5.27-21.42-11.8-31.78-18.32L87.88,449.29,83.09,445A1.4,1.4,0,0,0,82,444h0c-3.29-3.34-6.37-6.9-10.12-9.76-1.46-1.26-2.07-3.28-3.86-4.23l-1-1.08a1.18,1.18,0,0,0-1-.95Q56.53,416,47,404.05v0a1.19,1.19,0,0,0-.9-1.13c-.58-1-1.1-2-1.74-3-8.75-12.93-16.67-26.32-22.6-40.81L15,343a17.35,17.35,0,0,0-.46-1.89C8.24,323.23,3.65,304.93,1.81,286a270.71,270.71,0,0,1,2-74.07c1.61-10.5,4.55-20.69,7.17-31l5.7-16c.47-1.23.91-2.46,1.4-3.68A258,258,0,0,1,46.31,109c6.07-8.73,13-16.74,19.74-24.92A47.35,47.35,0,0,0,73.8,75.9C76,73.35,79.11,71.85,81,69L89.93,61l22-17a1,1,0,0,0,1-.86,1.7,1.7,0,0,0,.88-.38A34.2,34.2,0,0,0,124,36.07a5.79,5.79,0,0,0,.93-.25A.86.86,0,0,0,126,35.1c4.45-1.77,8.31-4.65,12.56-6.79A264,264,0,0,1,191,8.23,236.93,236.93,0,0,1,235.93.89C237,.83,238.31,1.43,239,0ZM201.07,296.07a25.07,25.07,0,0,0-15.15,7.64c-2.87,2.86-2.51,5.14.38,8.11,2,2.08,4.62,3.11,7.21,4.18,8.79,3.66,18.17,4.73,27.48,5.85,14.71,1.77,29.5,1.32,44.19,0,17-1.56,33.89-4.27,50.73-9.4-4-2.18-8-3.9-11.22-6.74-1.86-1.63-3.62-1.74-5.93-1.29a322,322,0,0,1-40.32,5.33,265.81,265.81,0,0,1-42.32-.91c-4.88-.46-9.91-.59-14.55-2.66-4-1.79-4.81-4.27-2.43-7.83.55-.82,1.23-1.55,1.85-2.32.09-.23,1.09-.05.31-.68Zm161.89,66c0-.5.05-1-.65-.52l.73.45c.94,5,.25,6.79-4.14,9.34a31,31,0,0,1-6.32,2.84,161.26,161.26,0,0,1-26.08,5.73A531.76,531.76,0,0,1,269,384.67c-28.08.81-56.16,1.07-84.13-2.54-9.53-1.23-18.94-2.72-28.06-5.84-2.52-.86-5.83-1.29-6-4.36-.16-2.87,2.84-4.07,5.21-5.28a61,61,0,0,1,26.73-7c-2.47-1.57-2.47-1.57-3.69-1.67-11.34-.88-22,1.81-32.39,6-5.35,2.17-10.51,4.62-15,8.58s-3,8.18,1.69,10.48a45,45,0,0,0,13.75,3.8c11.8,1.63,23.59,3.28,35.45,4.49s23.48,2,35.23,2.43c14.77.53,29.57.21,44.36.09,6.64-.05,13.29-.62,19.88-1.22,10-.92,20.09-2,30.07-3.64,13-2.2,26-4.57,38.48-9.15,5.25-1.93,10.63-3.86,14.76-7.9S368.65,364.41,363,362.05ZM254.69,252.72c-1.42-4.62-4.24-8.41-6.85-12.31-5.24-7.81-11-15.25-15.09-23.83-5.13-10.81-5.72-21.62-.56-32.45,3.53-7.42,8.86-13.66,14.82-19.2,6.2-5.75,12.87-11,19.31-16.49a111.86,111.86,0,0,0,25.95-31.16C298,106.89,301.18,96,299,84c-1.14-6.14-3.1-11.94-7.74-17.07a9.47,9.47,0,0,0-.1,2,50.87,50.87,0,0,1-1.23,28.82c-4.14,12.36-12.4,21.85-21.82,30.44-11.16,10.19-23.69,18.7-35,28.68-6.38,5.61-12.51,11.46-17.11,18.69a29.43,29.43,0,0,0-5,16.34c0,7.22,2.69,13.49,6.07,19.63a93.66,93.66,0,0,0,13,17.49A200,200,0,0,0,254.69,252.72Zm77.05-115.49a6.22,6.22,0,0,0-1.81-.08c-13.2,4.31-26.17,9.19-38.34,15.94-9.91,5.5-19.14,12-26.19,21-8.83,11.37-11.06,23.71-5.59,37.28a66.43,66.43,0,0,0,11.85,18.76c8.3,9.55,8.87,20.67,1.63,30.81-.58.81-1.27,1.54-1.93,2.29s-1.32,1.44-2,2.16c7.64-4.37,14.65-9.16,20-16.16,6.84-9,8.74-20.81,1.24-31.18-3.2-4.43-6.41-8.87-9.4-13.45-6.17-9.47-7.09-19.06-.07-28.6.88-1.2,1.82-2.37,2.8-3.48,7.56-8.52,16.56-15.33,26-21.56C317,146.33,324.26,141.93,331.74,137.23Zm-21,211.88c-6.95-2.44-12.37-5.55-17.93-8.36a5.44,5.44,0,0,0-3.82-.44c-19.76,4.09-39.68,5.91-59.81,3.63-5.89-.67-11.93-.73-17.59-2.84-4.92-1.83-5.07-2.17-4-7.17-3.76.58-6.88,2.44-9.89,4.35-4.34,2.76-4.6,6.63-.84,10.3A28.52,28.52,0,0,0,207.89,355c18.26,6.08,37,6.91,56,5.38A161.3,161.3,0,0,0,310.71,349.11Zm-97.38-93c-18.11,0-35,5.14-51.25,12.87-2.17,1-5.44,2-5.2,5.35s3.55,4.25,6.07,5.17c7.17,2.64,14.74,3.54,22.28,4.47,6.76.83,13.59.85,20.36,1.39,18.8,1.52,37.56.54,56.29-.66,10.36-.67,20.73-2,31-3.64,11.94-1.93,23.67-4.19,33.49-11.8a4.38,4.38,0,0,0-3.07,0c-10.7,2.33-21.6,3.3-32.44,4.62-11.51,1.41-23.1,2.37-34.69,2.79-20.72.74-41.47,1.68-62.14-.76-4.58-.54-9.61-.82-13.68-5.65C190,261.83,202.26,260.45,213.33,256.11ZM175.74,401.32c2.1.78,3.31,1.26,4.54,1.67,8.84,2.95,18,4.13,27.22,5.27,13.87,1.7,27.8,2.05,41.72,2.55,17.1.63,34.17-.49,51.24-1.71a279,279,0,0,0,48.05-7.18c9.62-2.41,19-5.57,27.09-11.6,3.72-2.77,6.42-6.08,6.93-10.84-3.37,3.43-7.47,5.54-11.7,7.47-13.62,6.23-28.16,9.32-42.74,11.94a378.65,378.65,0,0,1-52.79,5.79c-12.53.48-25.06,1.19-37.61.78-17.06-.54-34.12-1-51.09-3.21C183.38,401.82,180.16,400.58,175.74,401.32ZM336.44,258c4.22.22,7-1.05,10-1.23,14.44-.91,27.09,13.48,20.93,27.76A43.06,43.06,0,0,1,359.52,297c-6.83,7.38-15,13-23.55,18.09-2.24,1.34-5,2.06-6.82,4.33.47.25.65.42.76.39,1.11-.3,2.22-.62,3.32-1,11.66-3.73,23.13-7.87,33.07-15.34,6.18-4.64,11.53-9.93,14.7-17.17A23.08,23.08,0,0,0,376.48,261c-6.05-6.14-13.62-8.52-22-8.45C348.37,252.62,342.42,253.51,336.44,258Z" transform="translate(-0.16)"/></svg>